<?xml version="1.0" encoding="utf-8"?>
<!-- Generator: Adobe Illustrator 16.0.2, SVG Export Plug-In . SVG Version: 6.00 Build 0)  -->
<!DOCTYPE svg PUBLIC "-//W3C//DTD SVG 1.1//EN" "http://www.w3.org/Graphics/SVG/1.1/DTD/svg11.dtd">
<svg version="1.1" id="圖層_1" xmlns="http://www.w3.org/2000/svg" xmlns:xlink="http://www.w3.org/1999/xlink" x="0px" y="0px"
	 width="333px" height="308px" viewBox="0 0 333 308" enable-background="new 0 0 333 308" xml:space="preserve">
<g>
	<path fill="none" stroke="#E4B215" stroke-width="3" stroke-miterlimit="10" d="M236.125,85.043
		c0,39.134-30.594,70.871-68.354,70.871c-37.745,0-68.352-31.736-68.352-70.871c0-39.134,30.607-70.87,68.352-70.87
		C205.531,14.173,236.125,45.91,236.125,85.043z"/>
	<path fill="none" stroke="#E4B215" stroke-width="3" stroke-miterlimit="10" d="M142.751,59.103
		c32.691,19.575,43.899,62.916,25.02,96.812c-18.88,33.879-60.674,45.5-93.365,25.921c-32.699-19.555-43.892-62.896-25.027-96.792
		C68.258,51.149,110.06,39.528,142.751,59.103z"/>
	<path fill="none" stroke="#E4B215" stroke-width="3" stroke-miterlimit="10" d="M74.406,129.972
		c32.69-19.575,74.484-7.954,93.365,25.942c18.879,33.879,7.671,77.22-25.02,96.795c-32.691,19.572-74.493,7.952-93.372-25.944
		C30.515,192.871,41.708,149.547,74.406,129.972z"/>
	<path fill="none" stroke="#E4B215" stroke-width="3" stroke-miterlimit="10" d="M99.419,226.765
		c0-39.132,30.607-70.851,68.352-70.851c37.76,0,68.354,31.719,68.354,70.869c0,39.133-30.594,70.854-68.354,70.854
		C130.026,297.638,99.419,265.9,99.419,226.765z"/>
	<path fill="none" stroke="#E4B215" stroke-width="3" stroke-miterlimit="10" d="M192.797,252.709
		c-32.698-19.575-43.907-62.916-25.026-96.795c18.879-33.896,60.681-45.517,93.379-25.942
		c32.684,19.575,43.893,62.899,25.013,96.792C267.283,260.661,225.482,272.281,192.797,252.709z"/>
	<path fill="none" stroke="#E4B215" stroke-width="3" stroke-miterlimit="10" d="M261.143,181.835
		c-32.69,19.579-74.492,7.958-93.372-25.921c-18.88-33.896-7.672-77.236,25.026-96.812c32.693-19.575,74.486-7.954,93.366,25.941
		C305.043,118.938,293.834,162.28,261.143,181.835z"/>
	<path fill="none" stroke="#E4B215" stroke-width="3" stroke-miterlimit="10" d="M236.125,85.043
		c0,39.134-30.594,70.871-68.354,70.871c-37.745,0-68.352-31.736-68.352-70.886c0-39.135,30.607-70.854,68.352-70.854
		C205.531,14.173,236.125,45.91,236.125,85.043z"/>
</g>
</svg>
